<?xml version="1.0" encoding="UTF-8" standalone="no"?>
<!-- Created with Inkscape (http://www.inkscape.org/) -->

<svg
   width="29.632999mm"
   height="3.572mm"
   viewBox="0 0 29.632999 3.572"
   version="1.1"
   id="svg764"
   inkscape:version="1.2.1 (9c6d41e4, 2022-07-14)"
   sodipodi:docname="card_game.svg"
   xmlns:inkscape="http://www.inkscape.org/namespaces/inkscape"
   xmlns:sodipodi="http://sodipodi.sourceforge.net/DTD/sodipodi-0.dtd"
   xmlns:xlink="http://www.w3.org/1999/xlink"
   xmlns="http://www.w3.org/2000/svg"
   xmlns:svg="http://www.w3.org/2000/svg">
  <sodipodi:namedview
     id="namedview766"
     pagecolor="#ffffff"
     bordercolor="#000000"
     borderopacity="0.25"
     inkscape:showpageshadow="2"
     inkscape:pageopacity="0.0"
     inkscape:pagecheckerboard="0"
     inkscape:deskcolor="#d1d1d1"
     inkscape:document-units="mm"
     showgrid="false"
     inkscape:zoom="1.1039267"
     inkscape:cx="-37.593077"
     inkscape:cy="22.646432"
     inkscape:window-width="1309"
     inkscape:window-height="456"
     inkscape:window-x="0"
     inkscape:window-y="25"
     inkscape:window-maximized="0"
     inkscape:current-layer="layer1" />
  <defs
     id="defs761">
    <linearGradient
       id="SvgjsLinearGradient3181">
      <stop
         id="SvgjsStop3182"
         stop-color="#fbb040"
         offset="0" />
      <stop
         id="SvgjsStop3183"
         stop-color="#f9ed32"
         offset="1" />
    </linearGradient>
    <linearGradient
       inkscape:collect="always"
       xlink:href="#SvgjsLinearGradient3181"
       id="linearGradient757"
       gradientTransform="scale(2.8803896,0.34717526)"
       x1="0.34717527"
       y1="15.150849"
       x2="43.26498"
       y2="15.150849"
       gradientUnits="userSpaceOnUse" />
    <linearGradient
       inkscape:collect="always"
       xlink:href="#SvgjsLinearGradient3181"
       id="linearGradient803"
       gradientUnits="userSpaceOnUse"
       gradientTransform="scale(2.8803896,0.34717526)"
       x1="0.34717527"
       y1="15.150849"
       x2="43.26498"
       y2="15.150849" />
  </defs>
  <g
     inkscape:label="Layer 1"
     inkscape:groupmode="layer"
     id="layer1">
    <g
       id="SvgjsG3171"
       featurekey="sloganFeature-0"
       transform="matrix(0.23971311,0,0,0.23971311,-0.23971311,-1.260891)"
       fill="url(#SvgjsLinearGradient3181)"
       style="fill:url(#linearGradient757)">
      <path
         d="m 8.28,20.16 c -2,0 -3.86,-0.78 -5.16,-2.06 C 2.48,17.46 1.96,16.68 1.58,15.76 1.2,14.82 1,13.82 1,12.76 1,11.68 1.2,10.66 1.6,9.72 2,8.78 2.52,7.98 3.18,7.34 4.52,6.04 6.38,5.26 8.34,5.26 c 1.54,0 2.94,0.46 3.88,1.12 0.48,0.32 0.9,0.7 1.28,1.12 0.74,0.86 1.14,1.72 1.36,2.56 L 13.4,10.58 C 13.28,10.1 13.08,9.58 12.54,8.82 12.26,8.44 11.96,8.1 11.6,7.8 11.24,7.5 10.78,7.24 10.2,7.04 9.62,6.82 9,6.72 8.3,6.72 c -1.52,0 -2.98,0.62 -4,1.64 -1.04,1.04 -1.7,2.58 -1.7,4.3 0,1.14 0.24,2.18 0.74,3.1 0.48,0.92 1.16,1.64 2.06,2.16 0.86,0.52 1.84,0.78 2.92,0.78 1.34,0 2.5,-0.46 3.2,-1.02 0.36,-0.28 0.68,-0.6 0.96,-1 0.28,-0.38 0.48,-0.72 0.62,-1 0.12,-0.28 0.24,-0.58 0.34,-0.88 l 1.46,0.52 c -0.22,0.78 -0.6,1.58 -1.34,2.48 -0.36,0.44 -0.8,0.84 -1.26,1.18 -0.96,0.68 -2.42,1.18 -4.02,1.18 z M 28.38,20 26.78,16.28 H 18.84 L 17.24,20 H 15.68 L 21.96,5.42 H 23.7 L 30,20 Z M 26.2,14.88 22.8,7 19.42,14.88 Z M 42.76,20 H 40.9 L 36.58,14.1 H 33.62 V 20 H 32.08 V 5.42 h 5.06 c 1.72,0 3.1,0.48 3.9,1.28 0.8,0.8 1.22,1.8 1.22,2.98 0,2.46 -1.84,3.88 -4,4.16 z M 33.62,6.86 V 12.7 H 37 c 1.28,0 2.28,-0.36 2.86,-0.94 C 40.42,11.2 40.7,10.5 40.7,9.72 40.7,8.28 39.82,6.86 37.04,6.86 Z M 45.48,20 V 5.42 h 4.34 c 1.12,0 2.16,0.18 3.12,0.56 0.96,0.36 1.78,0.88 2.44,1.52 1.34,1.3 2.14,3.14 2.14,5.18 0,1.06 -0.2,2.06 -0.6,2.98 -0.4,0.92 -0.96,1.68 -1.64,2.32 C 53.9,19.24 51.94,20 49.82,20 Z M 47.02,6.86 v 11.7 h 2.74 c 1.22,0 2.3,-0.26 3.22,-0.76 0.94,-0.5 1.68,-1.18 2.18,-2.06 0.52,-0.88 0.78,-1.9 0.78,-3.02 0,-1.66 -0.62,-3.14 -1.68,-4.2 C 53.22,7.48 51.6,6.86 49.76,6.86 Z M 78.5,9.6 77.04,10.12 C 76.86,9.6 76.62,9.06 76.04,8.4 75.76,8.1 75.44,7.8 75.08,7.56 74.36,7.06 73.24,6.7 72.02,6.7 c -1.1,0 -2.08,0.26 -2.96,0.82 -0.88,0.56 -1.56,1.28 -2.04,2.2 -0.48,0.9 -0.72,1.88 -0.72,2.96 0,1.64 0.56,3.16 1.52,4.26 0.98,1.1 2.5,1.78 4.22,1.78 1.3,0 2.54,-0.42 3.48,-1.14 0.94,-0.72 1.58,-1.88 1.66,-3.22 H 71.1 v -1.42 h 7.72 v 0.56 c 0,1.84 -0.66,3.5 -1.8,4.7 -1.16,1.2 -2.94,1.94 -5,1.94 -2.18,0 -4.08,-0.8 -5.32,-2.12 -1.24,-1.32 -1.98,-3.2 -1.98,-5.26 0,-1.38 0.32,-2.66 0.96,-3.8 0.64,-1.14 1.52,-2.04 2.64,-2.7 1.12,-0.66 2.38,-0.98 3.74,-0.98 1.72,0 3.24,0.48 4.28,1.32 1.06,0.82 1.76,1.82 2.16,3 z M 92.44,20 90.84,16.28 H 82.9 L 81.3,20 H 79.74 L 86.02,5.42 h 1.74 L 94.06,20 Z M 90.26,14.88 86.86,7 83.48,14.88 Z m 18.9,-9.46 h 2.2 V 20 h -1.52 V 7.5 7.5 L 104.42,20 h -1.38 L 97.66,7.6 V 7.6 20 H 96.14 V 5.42 h 2.18 l 5.44,12.5 z M 115.42,20 V 5.42 h 9.12 v 1.42 h -7.58 v 5.04 h 6.94 v 1.42 h -6.94 v 5.28 h 7.66 V 20 Z"
         id="path88"
         style="fill:url(#linearGradient803)" />
    </g>
  </g>
</svg>
